<?xml version="1.0" encoding="UTF-8" standalone="no"?>
<svg
   xmlns:dc="http://purl.org/dc/elements/1.1/"
   xmlns:cc="http://creativecommons.org/ns#"
   xmlns:rdf="http://www.w3.org/1999/02/22-rdf-syntax-ns#"
   xmlns:svg="http://www.w3.org/2000/svg"
   xmlns="http://www.w3.org/2000/svg"
   xmlns:sodipodi="http://sodipodi.sourceforge.net/DTD/sodipodi-0.dtd"
   xmlns:inkscape="http://www.inkscape.org/namespaces/inkscape"
   inkscape:version="1.0 (4035a4fb49, 2020-05-01)"
   sodipodi:docname="back.svg"
   viewBox="0 0 980 649"
   height="649"
   width="980"
   id="svg2"
   version="1.1">
  <metadata
     id="metadata8">
    <rdf:RDF>
      <cc:Work
         rdf:about="">
        <dc:format>image/svg+xml</dc:format>
        <dc:type
           rdf:resource="http://purl.org/dc/dcmitype/StillImage" />
        <dc:title></dc:title>
      </cc:Work>
    </rdf:RDF>
  </metadata>
  <defs
     id="defs6" />
  <sodipodi:namedview
     inkscape:current-layer="g10"
     inkscape:window-maximized="1"
     inkscape:window-y="-9"
     inkscape:window-x="-9"
     inkscape:cy="324.5"
     inkscape:cx="490"
     inkscape:zoom="1.2397959"
     showgrid="false"
     id="namedview4"
     inkscape:window-height="1001"
     inkscape:window-width="1920"
     inkscape:pageshadow="2"
     inkscape:pageopacity="0"
     guidetolerance="10"
     gridtolerance="10"
     objecttolerance="10"
     borderopacity="1"
     bordercolor="#666666"
     pagecolor="#ffffff" />
  <g
     id="g10"
     inkscape:label="Image"
     inkscape:groupmode="layer">
    <path
       id="path837"
       d="m 418.54035,583.96908 -6.82061,-7.06492 0.63302,-6.70208 c 0.34816,-3.68614 0.63622,-16.21644 0.64013,-27.84509 0.006,-17.51239 0.25533,-21.23826 1.45262,-21.69771 0.79503,-0.30508 9.43867,-0.28003 19.2081,0.0557 16.99745,0.58406 17.86559,0.71334 20.15354,3.00129 2.31784,2.31784 2.38027,2.78947 2.04189,15.42628 C 455.39286,556.17908 455.57303,556 438.88922,556 H 427 l -0.0153,16.25 c -0.008,8.9375 -0.37721,16.82015 -0.81953,17.517 -0.56985,0.89778 -2.79182,-0.7918 -7.62481,-5.79792 z m 23.26958,-45.78634 c -0.29187,-2.52639 -0.68874,-2.71975 -6.80993,-3.31774 -3.575,-0.34925 -6.8375,-0.43519 -7.25,-0.19098 -0.4125,0.24421 -0.75,1.97 -0.75,3.83509 v 3.39108 l 5.75,0.29991 c 7.38764,0.38531 9.46229,-0.53462 9.05993,-4.01736 z m -84.05744,46.06726 -5.68491,-5.75 -0.28379,-11 -0.28379,-11 h -7 -7 l -0.5,10.5 -0.5,10.5 -4.41979,0.31579 c -2.43088,0.17369 -5.46838,0.0526 -6.75,-0.26905 L 323,576.9619 l 0.0153,-33.23095 c 0.008,-18.27702 0.41096,-33.8557 0.89452,-34.61929 0.67869,-1.07172 2.27159,-0.0343 6.98469,4.54906 l 6.10548,5.93741 v 11.24474 11.24475 l 7.25,-0.29381 7.25,-0.29381 0.29012,-9.44588 c 0.15956,-5.19523 0.77716,-10.03273 1.37244,-10.75 1.20677,-1.45406 9.57267,-1.75823 11.67683,-0.42454 2.16136,1.36994 1.23226,23.28586 -1.09607,25.8546 -1.6798,1.85324 -1.66297,2.10938 0.38446,5.85195 2.0424,3.73334 2.10698,4.68647 1.40024,20.66387 -0.40751,9.2125 -1.04461,16.75 -1.41578,16.75 -0.37116,0 -3.23305,-2.5875 -6.35975,-5.75 z m 139.30742,-0.19764 -5.99626,-6.44763 -0.28182,-10.55237 L 490.5,556.5 h -7 -7 l -0.29012,9.44588 c -0.15956,5.19523 -0.77716,10.03273 -1.37244,10.75 -1.3997,1.68652 -10.25756,1.70776 -11.65169,0.0279 C 461.72397,574.96248 462.87986,509 464.37251,509 c 0.58193,0 3.5643,2.7 6.62749,6 l 5.56944,6 h 12.02672 C 504.57632,521 505,521.34621 505,534.4041 c 0,7.92085 -0.31231,9.72322 -2.07258,11.96104 L 500.85484,549 l 2.07258,2.63486 c 1.90951,2.42754 2.07138,3.94216 2.05727,19.25 -0.008,9.13833 -0.44579,17.29014 -0.97192,18.11514 -0.77493,1.21512 -2.09541,0.27547 -6.95286,-4.94764 z m -5.82752,-44.48771 c 0.69559,-3.63872 -0.14531,-4.21845 -6.99724,-4.82401 -5.20028,-0.45959 -6.40101,-0.27219 -7.06621,1.10284 -0.44075,0.91109 -0.71532,2.21902 -0.61015,2.90652 0.10516,0.6875 0.24746,1.7 0.31621,2.25 0.0697,0.55771 3.16947,1 7.00842,1 6.49949,0 6.90939,-0.13584 7.34897,-2.43535 z m 89.23631,44.40356 -5.9687,-6.03179 -0.18877,-20.21821 c -0.10383,-11.12002 -0.21633,-20.78071 -0.25,-21.46821 -0.0407,-0.83143 -1.81922,-1.25513 -5.31123,-1.26531 -2.8875,-0.008 -5.82844,-0.38234 -6.53543,-0.83092 -1.61261,-1.02319 -2.66841,-7.20939 -1.81248,-10.6197 l 0.64616,-2.5745 20.72588,0.27021 L 602.5,521.5 l 0.29513,5.5901 c 0.36342,6.8835 -0.47615,7.70028 -8.32972,8.10357 L 588.5,535.5 l -0.26607,27.25 c -0.14634,14.9875 -0.61043,27.25 -1.03131,27.25 -0.42087,0 -3.45114,-2.71431 -6.73392,-6.03179 z m 146.58947,-0.48614 -6.25884,-6.51794 0.22091,-13.23206 c 0.12149,-7.27764 0.16664,-16.71957 0.10033,-20.98207 L 721,535 h -5.42857 C 708.98532,535 707,533.38105 707,528.01036 707,520.66054 705.95891,521 728.5,521 c 17.57571,0 20.36712,0.21133 20.89301,1.58179 1.08311,2.82254 0.64169,10.14452 -0.6776,11.23943 -0.70652,0.58637 -3.96902,1.20397 -7.25,1.37245 L 735.5,535.5 l -0.26607,27.25 c -0.14634,14.9875 -0.63751,27.25 -1.09149,27.25 -0.45399,0 -3.6419,-2.93307 -7.08427,-6.51793 z m 112.62941,0.1888 -5.61457,-6.39507 -0.2865,-10.3879 L 833.5,556.5 h -7 -7 l -0.29012,9.44588 c -0.15956,5.19523 -0.77716,10.03273 -1.37244,10.75 -1.31012,1.5786 -9.99489,1.74667 -11.51864,0.22292 -1.35822,-1.35822 -0.53975,-65.93118 0.85454,-67.4188 0.6072,-0.64784 2.98212,1.20098 6.74392,5.25 l 5.80665,6.25 h 11.94948 C 847.56556,521 848,521.35668 848,534.4041 c 0,7.88869 -0.31607,9.728 -2.0506,11.9331 l -2.0506,2.60691 2.07516,2.80681 c 1.94121,2.62562 2.05744,3.92928 1.8006,20.19556 -0.18189,11.51998 -0.64545,17.51207 -1.37349,17.75412 -0.60441,0.20094 -3.62548,-2.51243 -6.71349,-6.02973 z m -5.37261,-43.76732 c 0.97835,-3.74122 -0.18983,-4.65216 -6.62757,-5.16814 -6.93077,-0.5555 -8.74121,0.53227 -7.93193,4.76577 0.45341,2.37185 0.82152,2.49882 7.24448,2.49882 6.02956,0 6.82652,-0.2284 7.31502,-2.09645 z M 210,583.90225 204.5,578.90153 204,567.70077 203.5,556.5 196.25,556.20619 189,555.91238 v 10.06856 c 0,9.96652 -0.0268,10.07875 -2.64465,11.07405 -1.57491,0.59879 -4.30522,0.67722 -6.75,0.19392 L 175.5,576.43734 175.2361,543.53257 c -0.17896,-22.31346 0.0794,-33.24721 0.80277,-33.96867 0.75456,-0.7526 2.82423,0.75372 7.07327,5.14797 l 6.00661,6.21188 -0.12335,9.28812 c -0.0678,5.10847 -0.0946,9.87034 -0.0594,10.58194 0.0476,0.9621 1.92271,1.21848 7.31397,1 l 7.25,-0.29381 0.5,-10 0.5,-10 6.21917,-0.29692 c 5.77333,-0.27563 6.25935,-0.13225 6.77966,2 1.00534,4.11999 0.0741,65.1102 -0.99883,65.41542 -0.55,0.15646 -3.475,-1.96585 -6.5,-4.71625 z m -82.93263,-7.32107 c -0.67832,-0.81733 -1.04819,-3.67894 -0.87244,-6.75 L 126.5,564.5 l 14,-0.5 14,-0.5 V 560 556.5 L 142.28136,556 c -16.20845,-0.66327 -15.68469,-0.0956 -16.10743,-17.45678 -0.45362,-18.62968 -1.70844,-17.6682 22.59805,-17.3152 L 167.5,521.5 l 0.3046,5.90724 c 0.20827,4.03924 -0.10795,6.17773 -1,6.76262 -0.71753,0.47046 -6.4796,0.82485 -12.8046,0.78753 -6.325,-0.0373 -12.0625,-0.043 -12.75,-0.0126 -0.75138,0.0332 -1.25,1.45135 -1.25,3.55523 v 3.5 l 6.75,0.11918 C 169.24196,542.51632 168,541.46646 168,560.08241 168,578.71468 168.89795,578 145.48759,578 c -13.66844,0 -17.48679,-0.29411 -18.42022,-1.41882 z m 101.248,0.38459 C 224.35089,575.4179 224,573.10866 224,548.56574 c 0,-21.56458 0.15653,-23.72227 1.84329,-25.40903 1.53904,-1.53904 4.18086,-1.95899 16.00552,-2.54428 16.59298,-0.8213 20.46782,-0.29665 23.16874,3.13701 1.84199,2.34171 1.98245,4.10028 1.98245,24.82032 0,22.85249 -0.49612,26.61873 -3.6734,27.88605 -2.68927,1.07267 -32.45936,1.50629 -35.01123,0.50996 z M 252.5,549 v -14.5 l -4.93373,-0.31229 C 237.63968,533.55937 238,532.98026 238,549.56286 v 14.52476 l 7.25,-0.29381 7.25,-0.29381 z m 24.81537,27.99302 c -1.20154,-0.48411 -2.6463,-1.74285 -3.21057,-2.7972 -0.63662,-1.18953 -0.94604,-10.92153 -0.81537,-25.64553 C 273.55568,518.54738 271.62293,521 295,521 c 21.41241,0 21.21816,-0.11209 20.79615,12 L 315.5,541.5 h -6.5 -6.5 l -0.31336,-3.25 c -0.17235,-1.7875 -0.84735,-3.2858 -1.5,-3.32954 -0.65265,-0.0438 -3.47123,-0.23096 -6.2635,-0.41603 -2.79227,-0.18506 -5.61798,-0.002 -6.27935,0.4067 -0.866,0.53522 -1.12431,4.63912 -0.92313,14.66602 L 287.5,563.5 h 6.99018 c 6.98472,0 6.99058,-0.002 7.50982,-3 0.51476,-2.9718 0.58065,-3 7.00982,-3 H 315.5 l 0.29212,7.75333 c 0.26875,7.13288 0.0923,7.95312 -2.20454,10.25 -2.45765,2.45765 -2.74355,2.49568 -18.29213,2.43328 -8.6875,-0.0349 -16.77853,-0.45948 -17.98008,-0.94359 z m 238.05983,-0.002 C 511.67066,575.53679 511,570.99328 511,547.35078 c 0,-20.404 0.16095,-22.51173 1.84785,-24.19863 1.55143,-1.55143 4.18735,-1.96159 16.43191,-2.55688 16.81288,-0.81738 21.76472,0.0122 23.5573,3.94645 0.77549,1.70202 1.16294,10.16261 1.16294,25.39455 0,20.28838 -0.19619,23.08445 -1.75482,25.00927 -1.6478,2.03495 -2.76083,2.18886 -18.25,2.52363 -9.07235,0.19608 -17.45134,-0.0189 -18.61998,-0.47779 z M 539.5,549 v -14.5 l -5.83437,-0.30242 c -3.4411,-0.17837 -6.41507,0.17951 -7.25,0.87244 -1.09011,0.90472 -1.41563,4.21265 -1.41563,14.38576 0,7.26599 0.31843,13.52932 0.70762,13.91851 0.3892,0.38919 3.6517,0.57669 7.25,0.41667 L 539.5,563.5 Z m 70.7194,28.15676 c -1.00133,-0.6354 -1.21941,-6.79297 -1,-28.23469 L 609.5,521.5 630.25,521.22971 651,520.95942 v 6.4529 c 0,7.81198 -0.007,7.81591 -13.78538,7.57519 C 622.07651,534.72304 623,534.49485 623,538.5 v 3.5 h 8.91821 C 644.08813,542 644,541.94476 644,549.57201 v 6.35802 L 633.75,556.21502 623.5,556.5 v 3.5 3.5 l 13.45982,0.28049 c 9.2294,0.19233 13.70337,0.66378 14.23469,1.5 1.21793,1.91683 0.93458,10.19042 -0.39451,11.51951 -1.39062,1.39062 -38.43808,1.71631 -40.5806,0.35676 z M 661.5,576.80505 c -1.1,-0.62377 -2.33061,-1.62258 -2.73469,-2.21959 -0.40408,-0.597 -0.74158,-11.99796 -0.75,-25.33546 -0.0145,-22.92771 0.0937,-24.35905 1.98469,-26.25 1.84356,-1.84356 3.33333,-2 19.04545,-2 16.76431,0 17.08594,0.0405 19.5,2.45455 2.12854,2.12853 2.45252,3.3571 2.43924,9.25 -0.008,3.7375 -0.3869,7.38128 -0.84106,8.09729 -0.57343,0.90406 -2.78405,1.20962 -7.23469,1 -6.36774,-0.2999 -6.41089,-0.32187 -6.71227,-3.41744 -0.2922,-3.00115 -0.50961,-3.13689 -5.9183,-3.69512 -9.3041,-0.96027 -9.3797,-0.83413 -9.05626,15.11083 L 671.5,563.5 l 7.25,0.29381 c 5.37174,0.21769 7.27988,-0.0414 7.36535,-1 0.0634,-0.7116 0.2199,-1.74381 0.34769,-2.29381 0.12778,-0.55 0.30087,-1.58397 0.38465,-2.29772 0.11092,-0.9451 1.85057,-1.21682 6.40231,-1 l 6.25,0.29772 0.2898,8.2102 c 0.43381,12.29017 0.42154,12.29768 -20.0398,12.25939 -10.21657,-0.0191 -16.99258,-0.4515 -18.25,-1.16454 z m 98.81537,0.16072 C 756.35089,575.4179 756,573.10866 756,548.56574 c 0,-21.56458 0.15653,-23.72227 1.84329,-25.40903 1.53904,-1.53904 4.18086,-1.95899 16.00552,-2.54428 16.59298,-0.8213 20.46782,-0.29665 23.16874,3.13701 1.84199,2.34171 1.98245,4.10028 1.98245,24.82032 0,22.85249 -0.49612,26.61873 -3.6734,27.88605 -2.68927,1.07267 -32.45936,1.50629 -35.01123,0.50996 z M 784.5,549 v -14.5 l -4.93373,-0.31229 C 769.63968,533.55937 770,532.98026 770,549.56286 v 14.52476 l 7.25,-0.29381 L 784.5,563.5 Z M 347.25489,463.13332 c 0.26848,-1.02668 7.14418,-13.06418 15.27934,-26.75 8.13516,-13.68583 17.98048,-30.32588 21.87848,-36.9779 22.37347,-38.1807 29.21762,-49.31015 30.35142,-49.35519 0.69527,-0.0276 3.6949,1.86227 6.66585,4.19977 9.86467,7.76138 20.51453,14.46119 26.87108,16.90456 1.54058,0.59218 2.66558,1.68614 2.5,2.43103 -0.26867,1.20865 -43.42463,40.40177 -59.87307,54.37516 -3.53539,3.00342 -10.48247,9.30342 -15.43795,14 C 363.57939,453.24916 349.56399,465 348.01081,465 c -0.72213,0 -1.03927,-0.78316 -0.75592,-1.86668 z M 477,382.62531 c -3.025,-1.26091 -9.4375,-3.78181 -14.25,-5.60201 -4.8125,-1.8202 -8.75,-3.66543 -8.75,-4.10051 0,-0.43508 12.2625,-11.77206 27.25,-25.1933 14.9875,-13.42123 31.4675,-28.18837 36.62223,-32.81586 C 567.75535,270.1326 598.66448,243 599.79535,243 c 1.00279,0 1.18452,0.81517 0.68685,3.08103 -0.37218,1.69456 -1.05238,5.40706 -1.51154,8.25 -1.7804,11.0235 -7.55388,30.6077 -11.69453,39.66897 -9.73445,21.30258 -12.55947,26.03721 -24.329,40.77449 -6.36404,7.96876 -21.40575,21.30653 -30.94713,27.44141 -8.10842,5.21352 -31.18266,16.23657 -39.34667,18.79673 -2.11567,0.66345 -5.04067,1.82925 -6.5,2.59067 -3.25548,1.69855 -2.55173,1.77375 -9.15333,-0.97799 z M 408.36343,341.75 c -17.18493,-17.80117 -31.5943,-44.65339 -38.36817,-71.5 L 368.92291,266 h -9.87967 c -10.3882,0 -13.03142,-0.47697 -13.06158,-2.35699 -0.0101,-0.62865 4.02494,-4.96801 8.96672,-9.64301 l 8.98505,-8.5 -2.08054,-16.5 c -1.55536,-12.33503 -2.11491,-22.80755 -2.21671,-41.48807 L 359.5,162.52385 l 11,-3.38169 c 6.05,-1.85993 13.25,-3.96647 16,-4.68119 2.75,-0.71471 6.35,-1.77478 8,-2.3557 1.65,-0.58092 7.05,-2.2286 12,-3.66151 4.95,-1.43291 10.8,-3.19588 13,-3.91771 3.70284,-1.21491 11.33271,-3.50705 29,-8.71209 6.76895,-1.99423 26.20499,-7.9599 31.67894,-9.72349 3.24016,-1.04391 11.82106,1.47299 11.82106,3.46729 0,0.72637 -4.39905,5.28553 -9.77566,10.13146 -8.46483,7.62932 -40.39422,36.33847 -95.72434,86.07006 -8.25,7.41523 -16.4625,14.81445 -18.25,16.44272 -1.81425,1.65264 -3.25,3.94788 -3.25,5.19558 0,2.32921 1.73511,12.81501 2.62314,15.85242 0.47753,1.63334 3.52757,1.75 45.75312,1.75 35.94557,0 45.61324,0.27183 47.05074,1.32297 1.67967,1.2282 0.605,3.3592 -15.00289,29.75 C 436.17742,311.70783 426.39797,328.325 423.692,333 c -5.68864,9.82804 -8.5328,14 -9.54425,14 -0.39384,0 -2.99678,-2.3625 -5.78432,-5.25 z m 195.26275,-115 c 0.34993,-5.6375 0.9266,-12.05 1.2815,-14.25 l 0.64528,-4 14.22352,-0.27746 C 631.57109,207.99247 634,208.18922 634,209.3747 634,210.95658 605.77937,237 604.06524,237 c -0.73848,0 -0.876,-3.21047 -0.43906,-10.25 z M 487,230.88128 c 0,-1.48736 4.9952,-10.47816 15.49057,-27.88128 15.15542,-25.13026 33.74709,-57.19281 34.22637,-59.02559 C 537.20849,142.09472 532.76258,139 529.57066,139 528.154,139 520.88382,136.89869 510,133.34347 c -2.475,-0.80847 -6.4125,-1.92793 -8.75,-2.48769 -2.94966,-0.70636 -4.22914,-1.5284 -4.18184,-2.68676 0.0375,-0.91796 3.70828,-4.81902 8.15731,-8.66902 4.44903,-3.85 14.20585,-12.87741 21.68184,-20.060912 7.47598,-7.183502 16.41748,-15.206761 19.87,-17.829464 3.45253,-2.622704 11.55253,-9.588431 18,-15.479393 C 590.78297,42.369258 597.2801,36.880097 598.25027,37.850273 599.29791,38.897913 599.60407,38.350384 568.53101,91 542.79865,134.60043 540,139.48659 540,140.81221 c 0,1.51068 4.35069,3.62065 10.5,5.09223 2.75,0.65809 7.37938,2.07381 10.28751,3.14605 2.90813,1.07223 6.15537,1.94951 7.21608,1.94951 1.0607,0 3.40632,0.64907 5.21248,1.44237 1.80616,0.79331 7.33393,2.61494 12.28393,4.04807 4.95,1.43313 11.475,3.42031 14.5,4.41595 l 5.5,1.81027 0.28321,20.39167 c 0.15577,11.21542 0.0347,21.40417 -0.26905,22.64167 L 604.9619,208 h -42.48385 -42.48384 l -14.33003,10.8754 C 489.75381,230.95016 487,232.72157 487,230.88128 Z"
       style="fill:#000000" />
  </g>
</svg>
